<?xml version="1.0" standalone="no"?>
<!DOCTYPE svg PUBLIC "-//W3C//DTD SVG 20010904//EN"
 "http://www.w3.org/TR/2001/REC-SVG-20010904/DTD/svg10.dtd">
<svg version="1.0" xmlns="http://www.w3.org/2000/svg"
 width="1350.000000pt" height="1350.000000pt" viewBox="0 0 1350.000000 1350.000000"
 preserveAspectRatio="xMidYMid meet">
<metadata>
Created by potrace 1.10, written by Peter Selinger 2001-2011
</metadata>
<g transform="translate(0.000000,1350.000000) scale(0.100000,-0.100000)"
fill="#000000" stroke="none">
<path d="M6545 10370 c-127 -8 -290 -27 -355 -42 -25 -6 -70 -14 -100 -18 -62
-10 -130 -27 -310 -78 -176 -50 -377 -125 -530 -198 -63 -31 -122 -60 -130
-65 -8 -5 -22 -12 -30 -16 -40 -17 -226 -128 -315 -188 -447 -299 -824 -696
-1108 -1167 -41 -68 -178 -334 -212 -413 -75 -175 -123 -314 -178 -525 -8 -30
-20 -75 -27 -100 -6 -25 -15 -73 -20 -108 -5 -35 -12 -67 -15 -73 -13 -21 -37
-222 -49 -414 -19 -308 1 -651 49 -865 9 -36 15 -78 15 -93 0 -15 7 -44 15
-64 8 -19 15 -45 15 -56 0 -11 4 -34 10 -51 5 -17 19 -65 31 -106 38 -133 109
-342 128 -378 5 -9 20 -39 32 -67 12 -27 44 -96 70 -152 27 -55 52 -115 55
-132 7 -33 36 -57 55 -45 8 4 10 32 7 78 -4 61 -13 88 -62 191 -32 66 -62 129
-68 139 -6 11 -14 31 -18 45 -5 14 -18 51 -30 81 -81 209 -158 518 -194 775
-38 278 -42 453 -17 800 20 268 112 670 211 925 12 30 25 67 30 81 4 14 12 34
17 45 6 10 25 51 43 89 54 118 103 212 177 345 30 54 139 217 208 310 86 118
204 251 354 400 219 218 427 381 671 527 142 86 482 253 513 253 7 0 17 4 22
9 11 10 292 99 395 126 36 9 80 21 98 27 19 5 57 14 85 18 29 4 77 13 107 19
207 40 285 45 610 45 212 -1 348 -5 390 -13 36 -7 101 -16 145 -21 44 -4 93
-13 108 -19 16 -6 40 -11 54 -11 15 0 49 -6 77 -14 28 -8 80 -22 116 -31 98
-26 349 -105 400 -127 25 -10 56 -24 70 -30 14 -5 39 -16 55 -23 102 -43 359
-178 429 -225 24 -17 46 -30 49 -30 16 0 240 -164 389 -285 97 -79 359 -341
434 -434 138 -172 229 -299 308 -429 127 -209 259 -491 321 -682 10 -30 23
-71 30 -90 7 -19 20 -62 30 -95 9 -33 22 -76 28 -95 6 -19 14 -53 18 -75 4
-22 13 -62 19 -90 26 -119 31 -144 40 -220 23 -179 29 -291 29 -505 0 -267
-14 -429 -58 -680 -16 -88 -77 -321 -106 -400 -7 -19 -20 -60 -30 -90 -61
-191 -193 -471 -309 -658 -85 -137 -95 -161 -96 -224 0 -42 4 -58 13 -58 15 0
47 31 47 44 0 5 33 63 73 130 131 215 224 396 277 536 20 54 50 123 60 142 6
10 10 26 10 35 0 10 7 31 15 47 8 15 15 36 15 45 0 9 7 29 15 45 8 15 15 37
15 47 0 10 6 33 14 51 18 42 62 230 87 373 48 273 48 963 0 1230 -27 151 -61
295 -87 370 -8 23 -14 50 -14 61 0 11 -4 24 -9 30 -6 5 -14 27 -20 49 -10 42
-54 165 -71 200 -5 11 -21 51 -35 89 -52 138 -177 374 -304 571 -47 74 -234
326 -286 385 -128 148 -387 393 -535 505 -107 82 -342 245 -353 245 -3 0 -38
19 -79 43 -116 69 -374 191 -488 231 -58 21 -114 42 -125 46 -37 15 -90 32
-125 40 -19 4 -48 13 -65 18 -28 10 -84 25 -185 52 -25 6 -72 15 -105 20 -33
4 -80 13 -105 18 -172 41 -558 60 -845 42z"/>
<path d="M6731 9758 c-5 -13 -25 -58 -45 -101 -20 -43 -36 -83 -36 -88 0 -19
43 -8 66 16 31 33 66 32 100 -4 21 -23 32 -28 45 -20 18 9 15 41 -9 85 -6 10
-23 45 -37 77 -22 47 -31 57 -51 57 -16 0 -27 -8 -33 -22z m49 -78 c9 -16 8
-22 -5 -26 -21 -8 -39 10 -32 30 9 22 24 20 37 -4z"/>
<path d="M6954 9769 c-8 -14 -15 -176 -8 -201 3 -10 14 -18 24 -18 23 0 27 13
35 128 5 60 4 92 -3 92 -6 0 -17 3 -25 6 -8 3 -18 0 -23 -7z"/>
<path d="M6513 9758 c-6 -7 -13 -28 -17 -47 -14 -73 -43 -79 -70 -15 -19 47
-58 76 -76 58 -6 -6 -7 -52 -3 -113 6 -107 16 -127 49 -100 15 13 15 40 -2 83
-6 16 -5 17 15 7 12 -7 26 -24 31 -37 14 -37 53 -29 60 11 8 44 34 39 38 -7 3
-36 23 -55 44 -42 11 7 4 187 -8 205 -8 13 -50 11 -61 -3z"/>
<path d="M7128 9745 c-28 -16 -42 -43 -33 -66 3 -8 23 -26 45 -39 22 -14 40
-30 40 -37 0 -15 -36 -17 -45 -3 -3 6 -17 10 -31 10 -18 0 -24 -5 -24 -23 0
-17 10 -28 36 -41 48 -22 87 -13 115 26 26 36 20 51 -34 87 -48 31 -50 55 -4
46 17 -4 36 -8 42 -9 5 0 11 9 13 21 3 18 -4 24 -35 32 -48 14 -52 13 -85 -4z"/>
<path d="M6051 9705 c-18 -8 -46 -15 -62 -15 -32 0 -49 -24 -30 -43 6 -6 21
-12 34 -12 19 0 24 -9 35 -60 8 -33 15 -66 18 -72 2 -7 18 -13 35 -13 30 0 31
2 26 33 -3 17 -11 52 -18 76 -12 43 -11 45 14 63 30 22 35 43 11 52 -21 8 -24
8 -63 -9z"/>
<path d="M7361 9695 c-43 -37 -57 -85 -35 -126 52 -101 163 -100 209 0 15 34
16 45 5 71 -32 77 -120 104 -179 55z m104 -41 c31 -20 33 -56 5 -84 -23 -23
-33 -24 -63 -9 -41 22 -48 51 -19 87 20 26 44 28 77 6z"/>
<path d="M7652 9654 c-13 -9 -22 -26 -22 -41 0 -14 -8 -47 -17 -72 -9 -26 -14
-55 -10 -64 10 -26 36 -20 48 11 29 73 37 71 62 -10 17 -54 20 -59 44 -56 21
2 28 10 35 38 4 19 15 56 24 83 17 51 12 97 -11 97 -8 0 -19 -16 -25 -37 -6
-21 -17 -49 -24 -63 -16 -28 -16 -28 -37 55 -12 49 -25 75 -38 75 -4 0 -17 -7
-29 -16z"/>
<path d="M5832 9648 c-10 -13 -2 -78 15 -118 4 -8 11 -33 17 -55 9 -33 15 -40
36 -40 19 0 26 6 28 24 2 13 -1 28 -7 34 -6 6 -11 20 -12 32 0 11 -8 45 -18
75 -18 55 -39 72 -59 48z"/>
<path d="M5621 9567 c-16 -40 -25 -214 -12 -222 16 -9 41 13 41 35 0 33 91 70
102 41 5 -14 42 -21 57 -12 12 8 3 22 -43 71 -31 34 -64 73 -73 86 -20 31 -60
32 -72 1z m74 -67 c8 -13 -14 -42 -26 -34 -5 3 -9 14 -9 25 0 20 24 26 35 9z"/>
<path d="M5410 9504 c-72 -40 -74 -43 -46 -99 14 -28 33 -69 42 -93 14 -33 23
-42 39 -40 21 3 24 21 10 70 -6 24 -4 28 26 35 36 10 43 20 30 42 -7 11 -15
11 -46 1 -23 -8 -40 -9 -46 -3 -16 16 0 40 34 50 25 7 32 14 32 33 0 33 -20
34 -75 4z"/>
<path d="M8002 9437 c-10 -12 -6 -19 23 -41 40 -31 69 -31 73 -1 3 30 -11 45
-49 51 -24 4 -39 1 -47 -9z"/>
<path d="M8336 9388 c-9 -12 -16 -26 -16 -31 0 -5 -16 -33 -36 -62 -29 -45
-33 -57 -24 -74 15 -28 24 -26 54 11 l25 32 35 -17 c34 -16 36 -16 46 3 14 27
13 30 -19 41 -32 11 -47 37 -32 52 5 5 25 0 49 -15 33 -18 44 -20 54 -10 18
18 1 41 -52 69 -54 29 -65 29 -84 1z"/>
<path d="M5060 9330 c-6 -12 -11 -36 -10 -53 3 -58 2 -60 -31 -33 -37 32 -63
33 -83 4 -20 -29 -20 -52 1 -84 13 -21 23 -25 52 -22 35 3 36 2 39 -34 5 -64
52 -42 52 23 0 45 17 59 39 32 9 -11 25 -23 35 -27 28 -10 66 30 66 68 0 37
-7 47 -42 65 -25 13 -30 12 -46 -2 -27 -25 -32 -21 -32 22 0 48 -23 72 -40 41z
m-57 -146 c-3 -8 -9 -14 -14 -14 -14 0 -22 27 -14 48 6 16 7 16 20 -1 8 -11
11 -25 8 -33z m171 30 c9 -23 7 -34 -4 -34 -15 0 -50 33 -44 42 9 14 42 9 48
-8z"/>
<path d="M8522 9248 c-17 -29 -42 -68 -56 -87 -19 -26 -23 -38 -15 -48 16 -18
29 -16 55 8 29 27 40 19 47 -31 10 -74 51 -90 49 -20 0 21 5 33 16 37 30 10
72 56 72 78 0 31 -70 99 -113 110 -22 6 -28 0 -55 -47z m92 -34 c34 -34 6 -73
-38 -53 -28 13 -34 37 -14 57 16 16 33 15 52 -4z"/>
<path d="M4752 9134 c-12 -8 -29 -28 -36 -43 -13 -24 -12 -32 4 -68 19 -43 75
-93 104 -93 26 0 74 28 86 49 24 45 5 104 -49 150 -29 25 -78 27 -109 5z m92
-67 c15 -19 26 -41 26 -50 0 -17 -40 -33 -63 -24 -21 8 -40 54 -33 81 9 36 40
33 70 -7z"/>
<path d="M8809 9102 c-13 -10 -52 -34 -87 -52 -50 -26 -62 -38 -60 -54 3 -18
9 -21 45 -18 50 4 83 -22 83 -67 0 -31 18 -45 40 -31 7 5 17 30 21 57 5 26 14
71 20 100 10 42 10 55 0 67 -17 21 -33 20 -62 -2z m4 -68 c3 -4 2 -16 -4 -26
-13 -24 -35 -9 -26 16 7 17 19 21 30 10z"/>
<path d="M4571 8993 c-48 -19 -76 -81 -57 -126 18 -44 80 -97 113 -97 27 0
103 69 103 94 0 26 -62 104 -94 120 -36 17 -43 18 -65 9z m84 -124 c0 -44 -31
-51 -69 -16 -30 28 -34 64 -8 83 14 11 22 9 47 -11 23 -17 30 -31 30 -56z"/>
<path d="M8989 8958 c-15 -18 -44 -51 -63 -73 -37 -42 -45 -75 -22 -94 11 -9
19 -3 42 26 15 21 45 56 66 78 25 26 38 49 38 68 0 37 -26 35 -61 -5z"/>
<path d="M9092 8847 c-26 -27 -28 -55 -7 -83 15 -20 20 -54 8 -54 -14 0 -30
15 -42 38 -8 16 -20 22 -34 20 -32 -5 -31 -28 3 -70 36 -44 92 -60 117 -35 20
20 19 71 -1 102 -21 31 -20 35 4 35 13 0 24 -10 30 -25 11 -28 47 -34 56 -11
9 23 -26 72 -63 90 -43 21 -45 20 -71 -7z"/>
<path d="M4358 8816 c-10 -7 -18 -25 -18 -40 0 -23 4 -26 34 -26 28 0 42 -9
80 -52 39 -44 49 -51 64 -41 28 18 16 47 -47 112 -62 62 -82 71 -113 47z"/>
<path d="M4590 7630 c-10 -6 -14 -24 -13 -57 1 -29 -5 -58 -15 -75 -15 -26
-15 -29 3 -43 27 -20 32 -19 46 8 7 12 15 24 19 27 13 10 40 73 40 95 0 41
-46 67 -80 45z"/>
<path d="M4087 7583 c-74 -4 -78 -5 -75 -26 2 -12 15 -28 31 -35 l27 -13 0
-150 0 -151 -30 -11 c-25 -9 -30 -17 -28 -36 l3 -25 148 -1 c171 -1 170 -1
165 88 -3 44 -6 52 -24 55 -17 2 -25 -6 -38 -38 l-16 -41 -53 3 -52 3 0 153 0
153 33 19 c17 11 32 24 32 29 0 10 -35 33 -42 29 -2 -1 -38 -4 -81 -5z"/>
<path d="M4978 7583 c-86 -4 -100 -18 -50 -50 15 -10 29 -21 32 -24 3 -4 4
-74 2 -156 l-3 -149 -29 -11 c-31 -12 -39 -34 -17 -50 6 -6 49 -10 94 -11 72
0 82 2 86 19 6 21 -16 49 -39 49 -11 0 -14 28 -14 158 l0 157 30 17 c33 19 39
42 14 52 -9 3 -19 5 -22 4 -4 -1 -42 -4 -84 -5z"/>
<path d="M5622 7582 c-31 -5 -25 -33 9 -49 25 -12 26 -16 32 -130 4 -88 2
-121 -8 -131 -10 -11 -17 -5 -36 35 -12 26 -37 73 -55 103 -18 30 -46 80 -62
110 l-31 55 -72 0 c-40 0 -74 -4 -76 -10 -7 -22 17 -40 60 -44 6 -1 5 -70 -3
-308 0 -6 -10 -13 -22 -15 -18 -2 -24 -11 -26 -35 l-3 -32 88 2 c83 2 88 3 91
25 3 17 -3 25 -26 33 l-29 10 -6 107 c-6 105 -2 152 13 152 4 0 24 -34 45 -76
20 -42 50 -96 66 -119 16 -24 29 -46 29 -49 0 -4 11 -24 25 -46 20 -31 31 -40
54 -40 41 0 53 21 51 87 -1 32 -2 113 -1 179 1 120 1 122 25 128 24 6 44 41
32 53 -7 7 -126 10 -164 5z"/>
<path d="M6132 7583 c-12 -2 -38 -19 -57 -37 -30 -29 -35 -40 -35 -81 0 -41 5
-52 35 -80 19 -18 57 -41 84 -50 64 -21 101 -50 101 -80 0 -32 -40 -55 -95
-55 -45 0 -47 1 -63 40 -13 35 -19 41 -41 38 -24 -3 -26 -8 -29 -54 -4 -65 14
-82 96 -90 131 -14 229 66 202 164 -11 43 -47 70 -133 102 -63 23 -93 56 -82
89 8 25 36 33 96 29 39 -3 44 -6 47 -29 4 -31 43 -54 61 -36 18 18 14 92 -6
110 -19 16 -138 30 -181 20z"/>
<path d="M7770 7582 c-21 -7 -9 -42 20 -57 l31 -16 -5 -142 c-3 -78 -6 -147
-6 -153 0 -7 -11 -15 -25 -18 -20 -5 -25 -13 -25 -36 l0 -29 88 2 c82 2 87 3
90 25 3 17 -3 25 -26 33 l-29 10 -6 116 c-8 171 1 181 58 66 21 -43 43 -85 50
-93 7 -8 28 -44 48 -80 38 -69 73 -94 105 -74 15 10 17 34 19 185 1 96 2 179
3 185 0 7 11 15 24 18 29 7 45 44 25 58 -8 4 -27 6 -43 3 -16 -3 -53 -5 -83
-5 -46 0 -54 -3 -51 -17 2 -10 15 -23 29 -30 26 -13 27 -16 31 -130 4 -86 2
-122 -7 -131 -10 -11 -17 -5 -36 35 -12 26 -45 86 -71 133 -27 47 -55 96 -63
110 -12 21 -23 26 -74 30 -34 3 -66 4 -71 2z"/>
<path d="M6548 7570 c-1 -5 -1 -33 1 -61 3 -47 4 -50 29 -47 18 2 28 10 32 28
5 21 12 25 40 25 l35 0 0 -149 c0 -157 -5 -176 -46 -176 -16 0 -20 -6 -17 -27
l3 -28 100 0 100 0 3 28 c3 21 -1 27 -15 27 -41 1 -44 11 -48 173 -2 138 -1
156 14 160 28 7 58 -10 65 -38 5 -21 12 -26 34 -23 26 3 27 6 27 58 l0 55
-177 3 c-113 1 -177 -1 -180 -8z"/>
<path d="M7287 7574 c-4 -4 -7 -19 -7 -34 0 -14 -7 -35 -15 -46 -8 -10 -15
-25 -15 -32 0 -8 -6 -28 -14 -45 -18 -42 -40 -101 -62 -161 -13 -37 -24 -51
-46 -58 -24 -8 -29 -15 -26 -37 3 -26 4 -26 91 -27 86 -2 87 -1 87 22 0 17 -8
27 -25 34 -27 10 -33 38 -13 58 7 7 41 12 83 12 42 0 76 -5 83 -12 20 -20 14
-44 -14 -56 -18 -9 -24 -19 -22 -35 3 -21 8 -22 91 -24 l88 -1 -3 31 c-2 24
-9 33 -24 35 -14 2 -27 17 -37 40 -19 42 -75 201 -87 247 -26 93 -24 90 -66
93 -22 2 -43 0 -47 -4z m73 -173 c27 -82 23 -93 -37 -89 -47 3 -48 4 -45 33 1
17 9 46 16 65 8 19 17 44 20 54 9 27 21 11 46 -63z"/>
<path d="M8424 7566 c-3 -7 -4 -33 -2 -57 3 -39 6 -44 29 -47 22 -3 29 2 37
27 9 27 16 31 46 31 l36 0 0 -147 c0 -82 -4 -153 -8 -159 -4 -6 -20 -14 -35
-18 -24 -6 -28 -11 -25 -34 l3 -27 92 -2 c68 -1 95 3 104 13 17 21 3 44 -31
50 -16 4 -30 9 -31 13 0 3 -2 75 -4 159 l-3 152 38 0 c33 0 39 -4 49 -30 7
-23 16 -30 35 -30 25 0 26 2 26 60 l0 60 -175 0 c-140 0 -177 -3 -181 -14z"/>
<path d="M5960 6832 c-21 -8 -10 -51 17 -65 l26 -14 2 -134 c1 -148 10 -177
64 -217 42 -31 145 -34 197 -6 60 32 77 78 80 224 2 69 3 128 4 133 0 4 11 12
25 17 18 7 25 17 25 35 l0 26 -92 -3 c-84 -3 -93 -5 -93 -22 0 -11 13 -26 29
-36 l30 -16 -3 -109 c-3 -130 -7 -153 -34 -182 -30 -33 -99 -32 -132 2 -24 23
-25 29 -25 160 l0 136 30 10 c22 8 30 17 30 34 0 23 -4 24 -85 27 -47 2 -90 2
-95 0z"/>
<path d="M8898 6823 c-14 -17 -2 -47 24 -58 22 -9 23 -18 29 -130 3 -66 2
-124 -3 -129 -7 -9 -47 30 -48 46 0 6 -64 119 -101 178 -5 8 -14 26 -20 40
-21 50 -38 60 -105 60 -77 0 -89 -14 -46 -50 l32 -26 0 -152 0 -151 -27 -13
c-16 -7 -29 -23 -31 -36 -3 -21 -1 -22 93 -22 94 0 96 1 93 22 -2 13 -15 28
-29 35 -25 12 -27 17 -33 129 -8 130 -1 153 33 106 11 -17 21 -33 21 -36 0 -3
27 -51 60 -107 33 -55 60 -104 60 -108 0 -32 90 -56 106 -29 4 6 6 92 5 190
l-2 178 25 10 c25 9 28 13 30 43 1 17 -152 27 -166 10z"/>
<path d="M4755 6811 c-103 -64 -145 -203 -95 -313 41 -91 84 -118 192 -118
124 0 170 33 154 111 -5 25 -1 35 24 58 30 27 33 54 7 64 -7 2 -43 1 -82 -2
-62 -5 -70 -9 -73 -28 -2 -14 3 -23 17 -28 28 -9 44 -41 36 -73 -9 -35 -21
-42 -74 -42 -56 0 -107 31 -127 78 -18 42 -14 139 7 185 17 37 68 67 113 67
51 0 72 -14 80 -50 5 -27 10 -31 33 -28 26 3 28 7 31 53 3 49 2 51 -33 68 -51
24 -170 23 -210 -2z"/>
<path d="M5385 6788 c-64 -56 -85 -104 -85 -196 0 -65 3 -78 31 -121 47 -71
82 -91 161 -91 56 0 70 4 106 30 23 16 54 49 69 72 25 39 27 52 27 135 0 72
-4 97 -17 111 -9 10 -17 23 -17 29 0 5 -20 24 -44 41 -40 29 -52 32 -114 32
-67 0 -71 -1 -117 -42z m180 -38 c37 -23 55 -72 54 -146 -1 -69 -20 -115 -59
-141 -48 -33 -93 -30 -136 10 l-36 32 0 93 c-1 78 2 97 19 120 40 54 102 67
158 32z"/>
<path d="M6620 6806 c0 -18 8 -27 30 -35 l31 -10 -3 -158 -3 -157 -25 -6 c-18
-4 -26 -14 -28 -33 l-3 -27 91 0 91 0 -3 28 c-2 19 -9 28 -24 30 -23 3 -34 27
-34 79 0 46 9 63 34 63 31 0 60 -34 91 -105 39 -90 39 -90 86 -96 54 -8 59 -5
59 31 0 22 -5 29 -22 32 -23 3 -96 107 -97 138 -1 8 13 28 30 46 34 36 48 98
30 133 -7 12 -30 32 -51 46 -37 23 -49 25 -160 25 l-120 0 0 -24z m241 -64
c25 -23 29 -32 24 -55 -9 -33 -36 -53 -87 -62 -31 -6 -38 -4 -48 14 -10 20
-12 91 -2 119 8 24 79 14 113 -16z"/>
<path d="M7222 6803 c2 -19 10 -29 28 -33 l25 -6 1 -144 c0 -154 -5 -180 -36
-180 -16 0 -20 -7 -20 -30 l0 -30 91 0 90 0 -3 27 c-2 19 -10 29 -28 33 -24 6
-25 10 -33 110 -8 108 -4 150 14 150 5 0 12 -8 15 -17 4 -10 20 -54 38 -98 29
-74 34 -80 60 -80 30 0 41 16 106 158 12 26 26 45 31 41 5 -3 9 -58 9 -123 0
-120 -6 -141 -41 -141 -17 0 -33 -36 -23 -52 8 -12 182 -10 189 2 4 6 -9 25
-28 43 l-36 32 0 145 -1 145 30 17 c18 10 30 25 30 38 0 18 -6 20 -70 20 l-69
0 -19 -43 c-59 -134 -87 -187 -98 -187 -7 0 -18 12 -24 28 -6 15 -28 65 -49
112 l-37 85 -73 3 -72 3 3 -28z"/>
<path d="M8132 6818 c-6 -6 -12 -21 -12 -33 0 -12 -7 -30 -15 -41 -8 -10 -15
-28 -15 -40 0 -11 -7 -29 -15 -40 -8 -10 -15 -26 -15 -34 0 -8 -7 -28 -15 -44
-8 -15 -15 -36 -15 -45 0 -10 -7 -26 -15 -37 -8 -10 -15 -27 -15 -36 0 -11
-12 -21 -32 -26 -26 -6 -33 -14 -33 -33 0 -24 2 -24 93 -27 92 -3 93 -2 90 20
-2 13 -15 28 -30 36 -32 15 -33 21 -14 47 12 17 25 19 87 17 54 -2 77 -7 87
-19 17 -24 15 -32 -13 -45 -22 -10 -43 -43 -33 -53 2 -2 44 -5 93 -6 l90 -2 3
31 c3 29 0 32 -23 32 -30 0 -28 -4 -104 220 -55 161 -57 165 -86 168 -17 2
-36 -3 -43 -10z m66 -177 c12 -35 19 -68 16 -72 -6 -10 -97 -12 -106 -3 -5 5
33 121 48 145 10 16 19 0 42 -70z"/>
<path d="M9292 6808 c2 -13 15 -29 31 -36 l27 -13 0 -154 0 -154 -27 -13 c-16
-7 -29 -23 -31 -36 -3 -22 -2 -22 118 -22 140 0 174 12 233 80 41 48 53 107
42 198 -10 79 -34 113 -107 152 -31 17 -57 20 -163 20 -125 0 -126 0 -123 -22z
m275 -70 c14 -14 31 -49 39 -78 33 -128 -43 -235 -157 -218 -24 3 -24 4 -27
153 -1 82 0 155 3 163 9 25 111 11 142 -20z"/>
<path d="M5560 6023 c-24 -9 -52 -36 -61 -60 -12 -32 6 -83 51 -143 22 -30 39
-59 37 -65 -6 -16 -45 -10 -122 19 -99 37 -228 53 -307 38 -72 -13 -227 -86
-275 -130 -29 -25 -33 -35 -33 -79 0 -44 4 -55 35 -86 50 -52 125 -73 202 -57
69 14 125 40 213 98 113 74 181 102 254 102 36 0 67 -4 70 -9 7 -11 162 -87
218 -106 60 -22 90 -45 78 -60 -8 -10 -31 -12 -83 -8 -68 5 -75 4 -102 -20
-25 -21 -30 -32 -29 -70 2 -83 72 -160 177 -191 29 -8 97 -20 152 -27 55 -6
132 -15 170 -19 39 -4 86 -14 105 -20 91 -33 119 -43 165 -65 43 -20 210 -153
315 -253 19 -17 101 -85 182 -150 81 -64 147 -123 148 -129 0 -20 -28 -15 -89
14 -109 53 -279 41 -295 -21 -8 -28 -6 -87 2 -107 25 -59 135 -153 212 -182
58 -22 156 -22 228 0 38 11 97 16 177 17 114 1 122 0 165 -26 50 -31 364 -188
375 -188 4 0 21 -6 38 -14 18 -8 43 -16 57 -19 14 -3 61 -15 105 -27 44 -11
135 -27 203 -34 110 -11 156 -25 140 -41 -18 -18 -162 -28 -393 -27 -338 2
-508 13 -780 53 -38 6 -108 14 -155 19 -81 8 -126 23 -180 60 -35 25 -125 73
-262 141 -64 33 -120 65 -125 71 -13 21 -42 141 -43 178 -3 100 -62 230 -113
249 -36 14 -95 -9 -127 -48 -26 -31 -30 -43 -30 -100 0 -48 6 -78 26 -118 14
-30 24 -57 21 -59 -4 -5 -64 13 -89 27 -10 5 -46 19 -80 30 -100 34 -150 64
-189 111 -33 41 -109 159 -109 171 0 13 -72 125 -100 156 -27 29 -38 33 -80
34 -38 1 -54 -4 -65 -19 -60 -76 -40 -179 53 -276 36 -37 43 -51 34 -60 -9 -9
-20 -9 -50 2 -39 14 -148 36 -242 50 -88 12 -178 47 -245 94 -16 12 -37 26
-46 31 -14 8 -63 46 -214 163 -53 41 -125 74 -170 79 -45 5 -55 2 -78 -19 -33
-31 -35 -68 -7 -123 25 -49 62 -89 112 -123 23 -15 35 -29 30 -34 -5 -5 -98
-9 -206 -9 -108 0 -211 -5 -229 -10 -17 -5 -68 -12 -112 -16 -128 -10 -202
-54 -226 -133 -10 -31 -8 -46 6 -83 26 -69 56 -92 118 -91 41 0 61 7 97 32 25
18 64 45 88 62 84 59 149 86 297 121 22 6 58 16 81 24 30 10 87 13 223 10 100
-2 185 -6 189 -10 3 -3 -13 -23 -36 -43 -23 -20 -44 -48 -47 -62 -8 -35 26
-85 74 -110 41 -21 115 -27 126 -11 3 5 18 12 35 16 16 3 79 34 141 67 l112
61 88 -1 c48 -1 109 -6 136 -13 26 -6 71 -15 98 -20 65 -12 136 -32 205 -59
30 -12 69 -25 85 -30 47 -13 97 -31 127 -46 14 -8 33 -14 41 -14 8 0 45 -13
83 -29 38 -16 125 -53 194 -81 183 -77 243 -106 263 -128 25 -27 10 -33 -43
-17 -76 22 -207 43 -389 62 l-173 18 -94 86 c-59 54 -117 97 -159 117 -61 30
-72 32 -176 33 -119 0 -143 -7 -175 -56 -14 -21 -14 -30 -4 -55 18 -43 79 -92
142 -114 92 -33 91 -34 -37 -61 -99 -20 -206 -54 -354 -112 -132 -51 -124 -52
-310 8 -101 33 -140 41 -208 42 -69 0 -88 -3 -111 -20 -72 -54 -10 -168 118
-217 25 -9 54 -16 65 -15 38 4 55 -1 55 -16 0 -8 -5 -15 -11 -15 -5 0 -40 -20
-77 -44 -158 -104 -261 -264 -209 -328 44 -55 139 -66 207 -23 49 31 79 77
114 180 60 171 117 246 234 308 37 19 91 48 119 63 79 43 86 22 18 -56 -30
-34 -59 -78 -66 -97 -37 -112 76 -192 190 -133 64 32 103 87 141 200 18 56 47
120 63 142 39 55 109 84 217 92 47 3 124 11 173 18 135 18 136 1 2 -85 -70
-45 -147 -144 -168 -217 -17 -57 -17 -60 2 -98 11 -22 27 -42 36 -46 39 -15
104 -5 163 25 65 32 172 130 172 158 0 9 7 25 15 35 8 11 15 34 15 51 0 46 40
117 78 139 29 16 40 17 89 7 31 -6 82 -11 113 -11 84 0 94 -19 31 -59 -50 -33
-95 -89 -107 -135 -3 -15 -10 -29 -15 -32 -16 -10 -10 -89 11 -131 23 -47 63
-68 114 -59 38 7 117 62 211 147 176 158 245 184 430 159 50 -6 144 -19 210
-27 77 -10 220 -17 399 -19 153 -2 283 -7 288 -12 6 -6 -8 -18 -34 -31 -25
-11 -47 -21 -50 -21 -11 0 -194 -104 -249 -142 -31 -21 -64 -38 -73 -38 -20 0
-131 31 -211 60 -67 23 -199 36 -267 26 -53 -8 -122 -49 -137 -82 -17 -39 4
-89 59 -136 27 -24 64 -48 82 -55 46 -16 116 -16 174 2 60 18 94 19 94 2 0 -7
-34 -46 -76 -87 -67 -67 -147 -166 -181 -225 -34 -60 -64 -127 -72 -166 -6
-24 -17 -74 -26 -111 -8 -37 -15 -101 -15 -142 0 -71 2 -76 34 -110 40 -43 72
-46 131 -15 53 28 82 55 116 108 42 66 40 144 -7 287 -43 132 -43 179 3 245
36 51 234 246 314 307 30 24 63 50 74 58 97 77 141 80 76 5 -53 -61 -107 -167
-122 -239 -26 -124 32 -261 133 -313 71 -36 145 -16 216 57 82 86 98 149 111
412 7 141 14 201 29 246 33 96 44 103 272 162 192 49 280 79 400 136 58 28
121 57 140 66 123 54 183 97 296 215 146 152 154 162 154 202 0 58 -26 57 -73
-1 -123 -150 -334 -319 -431 -345 -132 -36 -325 48 -413 179 -37 56 -38 59
-39 155 -1 54 -4 100 -7 104 -3 3 -17 3 -31 -1 -36 -9 -54 -94 -36 -173 32
-146 140 -259 292 -308 67 -22 73 -28 49 -49 -43 -39 -272 -65 -411 -46 -178
23 -206 28 -250 48 -93 40 -159 146 -174 277 -27 236 -67 350 -147 419 -91 78
-202 54 -262 -58 -18 -34 -22 -57 -22 -132 1 -104 12 -137 82 -246 73 -114 56
-114 -110 0 -235 160 -354 260 -431 363 -42 56 -59 95 -89 199 -72 253 -117
349 -205 440 -61 64 -63 65 -115 65 -57 0 -97 -22 -116 -63 -14 -29 -14 -116
0 -165 6 -22 8 -42 4 -45 -8 -8 -45 16 -97 63 -50 46 -79 69 -255 202 -70 53
-168 137 -218 187 -80 81 -97 105 -154 219 -70 138 -112 195 -173 233 -38 25
-110 39 -138 27z m102 -88 c41 -28 94 -97 132 -172 14 -29 39 -74 56 -100 41
-64 26 -74 -42 -30 -69 46 -123 104 -187 198 -48 71 -60 106 -44 122 13 14 49
6 85 -18z m-253 -214 c27 -15 22 -21 -39 -46 -25 -10 -81 -40 -125 -66 -158
-93 -265 -105 -311 -34 -23 35 -6 66 49 90 146 64 188 75 297 72 60 -2 115 -9
129 -16z m530 -317 c122 -36 371 -159 371 -184 0 -17 -35 -20 -84 -6 -28 8
-105 22 -171 31 -157 21 -191 32 -237 76 -36 34 -49 74 -31 92 12 12 95 7 152
-9z m828 -152 c46 -48 96 -138 134 -246 15 -44 38 -106 49 -136 31 -78 33 -88
26 -106 -5 -13 -24 0 -89 62 -117 112 -157 162 -200 248 -28 58 -37 87 -37
127 0 95 52 117 117 51z m-1986 -450 c37 -26 101 -72 144 -102 43 -30 92 -67
109 -82 28 -24 29 -27 13 -34 -26 -10 -169 40 -242 84 -66 40 -118 89 -141
134 -34 65 26 65 117 0z m926 -105 c25 -40 66 -102 90 -138 68 -104 56 -127
-31 -60 -63 49 -91 80 -133 150 -34 56 -42 108 -21 129 19 19 45 -4 95 -81z
m2080 0 c65 -37 106 -134 133 -322 23 -160 34 -196 74 -248 43 -57 27 -74 -37
-41 -136 70 -265 240 -302 396 -33 144 41 266 132 215z m-1394 -152 c9 -20 17
-43 17 -53 0 -29 31 -165 46 -200 18 -43 10 -56 -24 -38 -55 29 -102 95 -126
176 -21 70 -20 92 5 124 30 38 61 34 82 -9z m-1985 -17 c-5 -14 -26 -26 -98
-57 -25 -11 -68 -35 -95 -53 -116 -79 -123 -82 -150 -64 -20 13 -25 25 -25 60
0 70 32 86 224 110 137 18 148 18 144 4z m2539 -19 c15 -6 42 -15 58 -20 138
-37 339 -121 343 -143 4 -18 -8 -21 -138 -36 -52 -7 -113 -14 -136 -17 -50 -6
-120 16 -178 57 -86 58 -123 140 -73 160 31 12 91 12 124 -1z m-1569 -49 c3
-17 -139 -82 -216 -99 -60 -13 -102 4 -102 41 0 43 39 62 144 69 133 9 170 7
174 -11z m482 -230 c51 -15 83 -33 135 -77 38 -32 70 -64 73 -70 13 -42 -290
32 -382 92 -24 16 -35 53 -19 68 13 14 128 6 193 -13z m396 -281 c6 -10 -1
-28 -42 -112 -8 -16 -14 -35 -14 -44 0 -48 -142 -164 -204 -167 -29 -1 -31 2
-34 36 -5 61 68 156 191 247 69 52 90 60 103 40z m-662 -28 c5 -8 -41 -118
-91 -218 -45 -91 -132 -131 -162 -75 -16 31 25 97 129 204 91 94 112 109 124
89z m1354 -27 c2 -17 -8 -29 -50 -52 -29 -17 -102 -72 -163 -122 -129 -108
-148 -119 -171 -99 -25 20 -14 114 20 167 50 79 111 112 231 122 115 10 129 9
133 -16z m-1978 -24 c90 -22 135 -43 125 -60 -9 -14 -154 -43 -188 -37 -82 13
-181 86 -162 117 10 17 104 8 225 -20z m3240 -170 c0 -12 -7 -35 -16 -52 -11
-21 -22 -98 -34 -238 -16 -192 -20 -212 -46 -260 -37 -68 -79 -100 -130 -100
-52 1 -87 31 -113 98 -26 66 -26 102 0 177 43 123 106 212 224 318 88 79 115
92 115 57z m-3260 -91 c0 -6 -15 -44 -34 -83 -19 -39 -37 -81 -41 -94 -9 -32
-54 -82 -83 -93 -31 -12 -78 -3 -86 16 -14 37 179 265 224 265 11 0 20 -5 20
-11z m2474 -40 c104 -27 153 -39 171 -41 14 -2 20 -11 20 -28 0 -22 -5 -26
-48 -32 -27 -3 -62 -11 -79 -17 -38 -13 -188 -14 -220 -2 -35 14 -78 59 -78
82 0 42 134 64 234 38z m-81 -581 c9 -25 45 -184 51 -226 8 -54 -12 -99 -65
-147 -47 -42 -72 -44 -88 -8 -12 27 -6 90 21 198 5 22 12 51 14 65 18 95 52
155 67 118z"/>
<path d="M7621 5981 c-13 -8 -13 -14 -2 -38 20 -41 23 -139 5 -157 -39 -39 -1
-62 88 -54 76 8 113 64 72 109 -14 16 -14 20 1 43 10 15 14 33 10 46 -14 43
-132 77 -174 51z m113 -84 c-8 -22 -40 -22 -48 0 -10 25 23 48 41 30 8 -7 11
-21 7 -30z m5 -75 c14 -27 -2 -46 -33 -38 -17 4 -26 13 -26 25 0 32 44 42 59
13z"/>
<path d="M7910 5962 c0 -17 6 -32 13 -35 14 -5 67 -101 67 -120 0 -6 -7 -19
-16 -29 -24 -25 -2 -48 46 -48 44 0 60 23 34 51 -21 24 -14 53 31 119 19 29
35 61 35 72 0 16 -6 19 -37 16 -33 -3 -38 -6 -36 -26 3 -26 -25 -87 -35 -77
-4 4 -12 28 -17 53 -10 45 -12 47 -48 50 -35 3 -37 2 -37 -26z"/>
<path d="M8471 5975 c-30 -17 -41 -33 -41 -66 0 -29 22 -53 72 -77 18 -10 33
-24 33 -32 0 -21 -39 -24 -55 -5 -14 17 -46 20 -55 4 -4 -5 -4 -21 -1 -34 14
-54 125 -54 160 0 30 46 15 83 -44 107 -19 8 -41 22 -48 31 -11 13 -10 17 8
27 17 9 25 8 39 -4 28 -25 61 -21 61 8 0 47 -75 71 -129 41z"/>
<path d="M8811 5976 c-15 -18 -51 -111 -58 -149 -3 -15 -14 -32 -25 -38 -30
-16 -20 -53 15 -57 33 -4 57 13 57 39 0 21 38 45 50 32 5 -4 10 -21 12 -38 3
-26 7 -30 39 -33 24 -2 40 2 49 13 12 14 10 19 -12 38 -15 12 -29 33 -33 47
-3 14 -10 34 -15 45 -5 11 -13 35 -18 54 -10 43 -43 68 -61 47z m24 -114 c0
-31 -19 -28 -23 4 -3 18 0 25 10 22 7 -3 13 -14 13 -26z"/>
<path d="M9057 5984 c-3 -4 0 -19 8 -35 18 -34 20 -138 3 -174 -16 -36 0 -45
89 -45 64 0 72 2 78 21 8 25 -2 69 -15 69 -5 0 -14 -9 -20 -21 -7 -13 -19 -19
-33 -17 -20 3 -22 10 -25 65 -2 38 3 75 12 96 8 20 12 38 8 41 -7 8 -97 8
-105 0z"/>
<path d="M9344 5976 c-3 -8 -1 -23 5 -35 15 -26 14 -136 -1 -160 -19 -31 -3
-51 41 -51 44 0 61 22 36 50 -19 21 -21 94 -2 88 6 -3 14 -13 16 -24 8 -47 45
-58 63 -20 10 24 36 41 46 32 2 -3 -3 -28 -12 -56 -9 -28 -14 -55 -11 -60 10
-16 71 -12 85 5 10 13 10 19 -4 33 -21 24 -22 122 -1 163 18 35 13 49 -19 49
-33 0 -61 -28 -76 -77 -7 -24 -18 -43 -24 -43 -14 0 -46 52 -46 73 0 36 -84
64 -96 33z"/>
<path d="M9823 5968 c-5 -7 -20 -46 -33 -87 -13 -41 -32 -83 -42 -93 -22 -22
-23 -41 -4 -58 22 -18 70 8 75 40 1 14 8 28 14 32 18 11 46 -10 40 -30 -6 -26
20 -44 59 -40 25 2 34 8 36 25 2 14 -3 23 -15 27 -12 4 -27 34 -46 95 -31 95
-57 123 -84 89z m32 -111 c0 -26 -20 -25 -23 2 -3 16 1 22 10 19 7 -3 13 -12
13 -21z"/>
<path d="M5062 5088 c-15 -15 -16 -60 0 -76 21 -21 57 -14 64 12 11 44 1 71
-26 74 -14 2 -31 -3 -38 -10z"/>
<path d="M6368 3349 c-38 -22 -8 -89 38 -89 27 0 44 19 44 50 0 45 -40 64 -82
39z"/>
<path d="M5677 3279 c-42 -25 -37 -97 7 -117 34 -15 64 -4 82 30 15 29 14 30
-21 64 -40 37 -42 38 -68 23z"/>
<path d="M6790 3204 c-40 -12 -63 -102 -37 -147 36 -64 80 -87 131 -67 79 30
96 109 38 179 -22 27 -36 34 -72 36 -25 2 -52 2 -60 -1z m86 -85 c14 -15 16
-24 8 -37 -23 -36 -74 -21 -74 23 0 41 35 48 66 14z"/>
<path d="M6272 2765 c-23 -29 -19 -61 9 -76 57 -30 112 49 61 89 -25 19 -49
14 -70 -13z"/>
</g>
</svg>
